# xmcd
#
# Track frame offsets: 
#        150
#        14441
#        26894
#        41410
#        54953
#        67831
#        82071
#        95292
#        108384
#        120340
#        130429
#        145273
#        157982
#        172649
#        184816
#        199345
#        212369
#        225166
#        239538
#        252834
#        265747
#        281785
#        293012
#
# Disc length: 4033 seconds
#
# Revision: 1
# Processed by: cddbd v1.5.1PL2 Copyright (c) Steve Scherf et al.
# Submitted via: ExactAudioCopy v0.95b4
#
DISCID=370fbf17
DTITLE=Homer translated by Fitzgerald - The Iliad read by Guidall
DYEAR=1994
DGENRE=Speech
TTITLE0=Book 20 b
TTITLE1=Book 20 c
TTITLE2=Book 20 d
TTITLE3=Book 20 e
TTITLE4=Book 20 f
TTITLE5=Book 20 g
TTITLE6=Book 20 h
TTITLE7=Book 20 i
TTITLE8=Book 20 j
TTITLE9=Book 21 a
TTITLE10=Book 21 b
TTITLE11=Book 21 c
TTITLE12=Book 21 d
TTITLE13=Book 21 e
TTITLE14=Book 21 f
TTITLE15=Book 21 g
TTITLE16=Book 21 h
TTITLE17=Book 21 i
TTITLE18=Book 21 j
TTITLE19=Book 21 k
TTITLE20=Book 21 l
TTITLE21=Book 22 a
TTITLE22=Book 22 b
EXTD=
EXTT0=
EXTT1=
EXTT2=
EXTT3=
EXTT4=
EXTT5=
EXTT6=
EXTT7=
EXTT8=
EXTT9=
EXTT10=
EXTT11=
EXTT12=
EXTT13=
EXTT14=
EXTT15=
EXTT16=
EXTT17=
EXTT18=
EXTT19=
EXTT20=
EXTT21=
EXTT22=
PLAYORDER=
